<svg width="21" height="21" viewBox="0 0 21 21" fill="none" xmlns="http://www.w3.org/2000/svg">
<path fill-rule="evenodd" clip-rule="evenodd" d="M9.38995 12.19V19.2895C9.38995 20.0627 10.0167 20.6895 10.7899 20.6895C11.5631 20.6895 12.1899 20.0627 12.1899 19.2895V12.19H19.2894C20.0626 12.19 20.6894 11.5632 20.6894 10.79C20.6894 10.0168 20.0626 9.38997 19.2894 9.38997L12.1899 9.38997L12.1899 2.29048C12.1899 1.51728 11.5631 0.890478 10.7899 0.890478C10.0167 0.890478 9.38995 1.51728 9.38995 2.29048L9.38995 9.38997L2.29045 9.38997C1.51726 9.38997 0.890453 10.0168 0.890453 10.79C0.890453 11.5632 1.51725 12.19 2.29045 12.19L9.38995 12.19Z" fill="#333436"/>
</svg>
