<svg width="183" height="184" viewBox="0 0 183 184" fill="none" xmlns="http://www.w3.org/2000/svg">
<path d="M108.131 128.623C114.588 142.118 116.882 152.693 116.225 160.773C115.57 168.83 111.982 174.428 106.597 178.02C101.191 181.625 93.9311 183.235 85.9156 183.2C77.9057 183.164 69.1817 181.486 60.8871 178.561C52.5925 175.635 44.7465 171.467 38.4873 166.469C32.2238 161.467 27.581 155.659 25.6335 149.46C23.6934 143.284 24.4121 136.674 28.9569 129.989C33.5154 123.285 41.9368 116.49 55.4314 110.033L55.2156 109.582L54.9998 109.131C41.5052 115.588 30.9302 117.882 22.8495 117.225C14.7931 116.57 9.19478 112.982 5.60312 107.597C1.99771 102.19 0.388102 94.931 0.423251 86.9155C0.458377 78.9057 2.13632 70.1816 5.06223 61.887C7.98814 53.5924 12.1553 45.7464 17.1535 39.4873C22.1553 33.2238 27.9635 28.5809 34.1628 26.6335C40.3386 24.6934 46.9491 25.4121 53.6333 29.9569C60.3377 34.5154 67.1328 42.9368 73.5896 56.4314L74.0406 56.2156L74.4917 55.9998C68.0349 42.5052 65.7409 31.9302 66.3978 23.8495C67.0527 15.7931 70.6407 10.1947 76.0262 6.60309C81.4323 2.99769 88.6918 1.38808 96.7072 1.42323C104.717 1.45836 113.441 3.1363 121.736 6.06221C130.03 8.98812 137.876 13.1553 144.136 18.1535C150.399 23.1553 155.042 28.9634 156.989 35.1628C158.929 41.3386 158.211 47.9491 153.666 54.6333C149.107 61.3377 140.686 68.1328 127.191 74.5896L127.407 75.0406L127.623 75.4916C141.118 69.0349 151.693 66.7408 159.773 67.3977C167.83 68.0527 173.428 71.6407 177.02 77.0262C180.625 82.4323 182.235 89.6917 182.2 97.7072C182.164 105.717 180.487 114.441 177.561 122.736C174.635 131.03 170.468 138.876 165.469 145.135C160.468 151.399 154.659 156.042 148.46 157.989C142.284 159.929 135.674 159.211 128.99 154.666C122.285 150.107 115.49 141.686 109.033 128.191L108.582 128.407L108.131 128.623Z" fill="white" stroke="white"/>
</svg>
