<svg width="181" height="180" viewBox="0 0 181 180" fill="none" xmlns="http://www.w3.org/2000/svg">
<path d="M28.8579 59.9025L29.2981 59.0046C29.2981 59.0046 29.2981 59.0046 29.298 59.0045C21.7218 55.2912 18.2647 50.082 17.5434 44.8371C16.819 39.5691 18.841 34.1694 22.4137 30.0774C25.9864 25.9853 31.0645 23.2528 36.3833 23.2591C41.6787 23.2654 47.3084 25.987 52.0124 32.9917L52.4275 32.7129L52.8426 32.4341C48.1385 25.4295 47.7499 19.1894 49.7484 14.2863C51.7558 9.36158 56.2075 5.69629 61.3478 3.93887C66.4882 2.18145 72.252 2.35422 76.8542 5.01925C81.4362 7.67254 84.9492 12.8445 85.518 21.2629L86.0169 21.2292L86.5157 21.1955C85.9469 12.7771 88.7318 7.17783 92.9147 3.93006C97.1162 0.667959 102.804 -0.281306 108.134 0.7663C113.464 1.81391 118.368 4.84512 121.02 9.45457C123.659 14.0404 124.117 20.2715 120.409 27.8413C120.407 27.8468 120.404 27.8524 120.401 27.8579L120.85 28.0779L120.865 28.0854L121.299 28.2981C121.302 28.2917 121.305 28.2853 121.308 28.2789C125.021 20.716 130.226 17.2641 135.467 16.5434C140.735 15.819 146.134 17.841 150.226 21.4137C154.318 24.9864 157.051 30.0645 157.045 35.3833C157.038 40.6787 154.317 46.3083 147.312 51.0124L147.591 51.4275L147.87 51.8426C154.874 47.1385 161.114 46.7499 166.017 48.7484C170.942 50.7558 174.607 55.2074 176.365 60.3478C178.122 65.4882 177.949 71.252 175.284 75.8542C172.631 80.4361 167.459 83.9491 159.041 84.518L159.074 85.0169L159.108 85.5157C167.527 84.9469 173.126 87.7317 176.374 91.9147C179.636 96.1161 180.585 101.804 179.537 107.134C178.49 112.463 175.459 117.368 170.849 120.02C166.26 122.661 160.023 123.117 152.446 119.401C152.446 119.401 152.446 119.401 152.446 119.401L152.226 119.85L152.206 119.891L152.006 120.299C159.582 124.012 163.039 129.222 163.76 134.466C164.485 139.735 162.463 145.134 158.89 149.226C155.317 153.318 150.239 156.051 144.92 156.044C139.625 156.038 133.995 153.317 129.291 146.312L128.876 146.591L128.461 146.869C133.165 153.874 133.554 160.114 131.555 165.017C129.548 169.942 125.096 173.607 119.956 175.365C114.815 177.122 109.052 176.949 104.449 174.284C99.8675 171.631 96.3545 166.459 95.7856 158.041L95.2868 158.074L94.7879 158.108C95.3568 166.526 92.5719 172.126 88.3889 175.374C84.1875 178.636 78.4998 179.585 73.17 178.537C67.8401 177.49 62.9357 174.459 60.2832 169.849C57.6423 165.26 57.1863 159.023 60.9025 151.446C60.9025 151.446 60.9025 151.446 60.9025 151.446L60.4535 151.226L60.4384 151.218L60.0046 151.006C56.2912 158.582 51.082 162.039 45.8372 162.76C40.5691 163.485 35.1694 161.463 31.0774 157.89C26.9853 154.317 24.2528 149.239 24.2591 143.92C24.2654 138.625 26.9871 132.995 33.9917 128.291L33.7129 127.876L33.4342 127.461C26.4295 132.165 20.1894 132.554 15.2863 130.555C10.3616 128.548 6.69629 124.096 4.93887 118.956C3.18146 113.815 3.35423 108.052 6.01925 103.449C8.67255 98.8675 13.8445 95.3545 22.2629 94.7856L22.2292 94.2868L22.1955 93.7879C13.7771 94.3568 8.17784 91.5719 4.93007 87.3889C1.66797 83.1875 0.718701 77.4998 1.76631 72.17C2.81392 66.8401 5.84513 61.9357 10.4546 59.2832C15.0438 56.6423 21.2805 56.1862 28.8578 59.9024C28.8578 59.9025 28.8579 59.9025 28.8579 59.9025Z" fill="white" stroke="white"/>
</svg>
